{"title":"Eurovision.Song.Contest.2014.Final.720p.HDTV.FEED.x264.50fps.MP2","uid":10316061,"size":10162572954,"categoryP":"video","categoryS":"other","magnet":"?xt=urn:btih:10a49806aea2418223e944c4bcd0c6b78650ab6f&amp;dn=Eurovision.Song.Contest.2014.Final.720p.HDTV.FEED.x264.50fps.MP2&amp;tr=udp%3A%2F%2Ftracker.openbittorrent.com%3A80&amp;tr=udp%3A%2F%2Fopen.demonii.com%3A1337&amp;tr=udp%3A%2F%2Ftracker.coppersurfer.tk%3A6969&amp;tr=udp%3A%2F%2Fexodus.desync.com%3A6969","seeders":2,"leechers":0,"uploader":"Lawry1494","files":-1,"time":1402242514,"description":"General\nComplete name                  : Eurovision.Song.Contest.2014.Final.720p.HDTV.FEED.x264.50fps.MP2.DTS-AMX.mkv\nFormat                         : Matroska\nFormat version                 : Version 4 / Version 2\nFile size                      : 9.36 GiB\nDuration                       : 3h 35mn\nOverall bit rate               : 6 223 Kbps\nWriting application            : mkvmerge v6.9.1 ('Blue Panther') 64bit built on Apr 18 2014 18:23:38\nWriting library                : libebml v1.3.0 + libmatroska v1.4.1\n\nVideo\nID                             : 1\nFormat                         : AVC\nFormat/Info                    : Advanced Video Codec\nFormat profile                 : &lt;a class=&quot;__cf_email__&quot; href=&quot;/cdn-cgi/l/email-protection&quot; data-cfemail=&quot;afe7c6c8c7efe39b819e&quot;&gt;[email&amp;#160;protected]&lt;/a&gt;&lt;script cf-hash='f9e31' type=&quot;text/javascript&quot;&gt;\n/* &lt;![CDATA[ */!function(){try{var t=&quot;currentScript&quot;in document?document.currentScript:function(){for(var t=document.getElementsByTagName(&quot;script&quot;),e=t.length;e--;)if(t[e].getAttribute(&quot;cf-hash&quot;))return t[e]}();if(t&amp;&amp;t.previousSibling){var e,r,n,i,c=t.previousSibling,a=c.getAttribute(&quot;data-cfemail&quot;);if(a){for(e=&quot;&quot;,r=parseInt(a.substr(0,2),16),n=2;a.length-n;n+=2)i=parseInt(a.substr(n,2),16)^r,e+=String.fromCharCode(i);e=document.createTextNode(e),c.parentNode.replaceChild(e,c)}}}catch(u){}}();/* ]]&gt; */&lt;/script&gt;\nFormat settings, CABAC         : Yes\nFormat settings, ReFrames      : 8 frames\nCodec ID                       : V_MPEG4/ISO/AVC\nDuration                       : 3h 35mn\nBit rate                       : 4 206 Kbps\nWidth                          : 1 280 pixels\nHeight                         : 720 pixels\nDisplay aspect ratio           : 16:9\nFrame rate mode                : Constant\nFrame rate                     : 50.000 fps\nColor space                    : YUV\nChroma subsampling             : 4:2:0\nBit depth                      : 8 bits\nScan type                      : Progressive\nBits/(Pixel*Frame)             : 0.091\nStream size                    : 6.33 GiB (68%)\nWriting library                : x264 core 142 r2431 ac76440\nDefault                        : Yes\nForced                         : No\n\nAudio #1\nID                             : 2\nFormat                         : MPEG Audio\nFormat version                 : Version 1\nFormat profile                 : Layer 2\nMode                           : Dual mono\nCodec ID                       : A_MPEG/L2\nCodec ID/Hint                  : MP2\nDuration                       : 3h 35mn\nBit rate mode                  : Constant\nBit rate                       : 384 Kbps\nChannel(s)                     : 2 channels\nSampling rate                  : 48.0 KHz\nCompression mode               : Lossy\nDelay relative to video        : 100ms\nStream size                    : 591 MiB (6%)\nDefault                        : Yes\nForced                         : No\n\nAudio #2\nID                             : 3\nFormat                         : DTS\nFormat/Info                    : Digital Theater Systems\nMode                           : 16\nFormat settings, Endianness    : Big\nCodec ID                       : A_DTS\nDuration                       : 3h 35mn\nBit rate mode                  : Constant\nBit rate                       : 1 509 Kbps\nChannel(s)                     : 5 channels\nChannel positions              : Front: L R, Side: L R, LFE\nSampling rate                  : 48.0 KHz\nBit depth                      : 24 bits\nCompression mode               : Lossy\nDelay relative to video        : 100ms\nStream size                    : 2.27 GiB (24%)\nDefault                        : No\nForced                         : No\n\nSource: ESC_2014_final_FEED_1080_50i Thanks!!!\n\nNote: Sorry for the delay! I waited on another source, but there is a silver lining. This source was ripped from the official H264 feed of EBU, while J Silver's sources were from the back-up MPEG2 feed so this one has higher quality... Another good thing about this source is the DTS track, encoded from the Dolby E in the feed.  Enjoy!","torrent":{"xt":"urn:btih:10a49806aea2418223e944c4bcd0c6b78650ab6f","amp;dn":"Eurovision.Song.Contest.2014.Final.720p.HDTV.FEED.x264.50fps.MP2","amp;tr":["udp%3A%2F%2Ftracker.openbittorrent.com%3A80","udp%3A%2F%2Fopen.demonii.com%3A1337","udp%3A%2F%2Ftracker.coppersurfer.tk%3A6969","udp%3A%2F%2Fexodus.desync.com%3A6969"],"infoHash":"10a49806aea2418223e944c4bcd0c6b78650ab6f","infoHashBuffer":{"type":"Buffer","data":[16,164,152,6,174,162,65,130,35,233,68,196,188,208,198,183,134,80,171,111]},"announce":[],"urlList":[]}}